# xmcd CD database file
#
# Track frame offsets:
#	150
#	22535
#	32910
#	82682
#	100852
#	135032
#	149260
#	182545
#
# Disc length: 3180 seconds
#
# Revision: 1
# Processed by: cddbd v1.5.2PL0 Copyright (c) Steve Scherf et al.
# Submitted via: CDex 1.70beta2
#
DISCID=4c0c6a08
DTITLE=柳家小三治 - 死神
DYEAR=1992
DGENRE=落語
TTITLE0=出囃子「二上りカッコ」～マクラ
TTITLE1=女房のののしり
TTITLE2=死神との出逢い
TTITLE3=にわか医者開業
TTITLE4=奇跡の名医出現
TTITLE5=名医の没落
TTITLE6=窮余の策
TTITLE7=死神との再会～サゲ～追い出し
EXTD=YEAR: 1992
EXTT0=
EXTT1=
EXTT2=
EXTT3=
EXTT4=
EXTT5=
EXTT6=
EXTT7=
PLAYORDER=
